<svg xmlns:xlink="http://www.w3.org/1999/xlink" xmlns="http://www.w3.org/2000/svg" height="16" width="16"><defs><symbol xmlns="http://www.w3.org/2000/svg" fill="none" height="16" id="based-silicon-valley-white" viewBox="0 0 16 16" width="16"><path d="M1.47934 0H2.80347C3.35195 0 3.79658 0.444628 3.79658 0.993103V16H1.47934V0Z" fill="#FFFFFF"></path><path d="M0.0448537 10.8506H15.1253V12.6897H0.0448537V10.8506Z" fill="#FFFFFF"></path><path d="M2.36209 6.03218H4.78968V8.75402V8.23908C4.78968 7.8328 4.46033 7.50345 4.05405 7.50345H2.36209V6.03218Z" fill="#FFFFFF"></path><path d="M2.36209 1.83908H4.78968V4.56092V4.04598C4.78968 3.6397 4.46033 3.31034 4.05405 3.31034H2.36209V1.83908Z" fill="#FFFFFF"></path><path d="M8.06324 6.32644H8.946V12.6897H8.06324V6.32644Z" fill="#FFFFFF"></path><path d="M10.3805 7.90805H11.2632V12.6897H10.3805V7.90805Z" fill="#FFFFFF"></path><path d="M12.6977 8.64368H13.5805V12.6897H12.6977V8.64368Z" fill="#FFFFFF"></path><path d="M4.78968 0H5.63565C6.18413 0 6.62876 0.444628 6.62876 0.993103V12.6897H4.78968V0Z" fill="#FFFFFF"></path><path d="M4.78968 13.646H6.62876V16H4.78968V13.646Z" fill="#FFFFFF"></path><path clip-rule="evenodd" d="M6.62876 1.06667C6.62876 5.17822 10.3769 8.6069 15.1253 8.6069V9.63678C9.91985 9.63678 5.59887 5.85261 5.59887 1.06667H6.62876Z" fill-rule="evenodd" fill="#FFFFFF"></path><path clip-rule="evenodd" d="M1.47934 0C1.47934 2.03056 0.922384 3.88869 0 5.35315L0.871436 5.90202C1.90174 4.26622 2.50922 2.21637 2.50922 0H1.47934Z" fill-rule="evenodd" fill="#FFFFFF"></path></symbol></defs><use xmlns:xlink="http://www.w3.org/1999/xlink" xlink:href="#based-silicon-valley-white"></use></svg>