<svg xmlns="http://www.w3.org/2000/svg" xmlns:xlink="http://www.w3.org/1999/xlink" id="Layer_1" x="0px" y="0px" viewBox="0 0 33 32" style="enable-background:new 0 0 33 32;" xml:space="preserve"><style type="text/css">	.st0{opacity:0.2;fill:#23BAB1;}	.st1{fill:#283874;}</style><rect x="5.5" y="17" class="st0" width="23" height="9"></rect><path class="st1" d="M10.4,7.2v2.4H7.2C5.4,9.6,4,11,4,12.8V24c0,1.8,1.4,3.2,3.2,3.2h19.2c1.8,0,3.2-1.4,3.2-3.2V12.8 c0-1.8-1.4-3.2-3.2-3.2h-3.2V7.2c0-1.3-1.1-2.4-2.4-2.4h-8C11.4,4.8,10.4,5.9,10.4,7.2z M12.8,6.4h8c0.4,0,0.8,0.4,0.8,0.8v2.4H12 V7.2C12,6.8,12.3,6.4,12.8,6.4z M7.2,11.2h19.2c0.9,0,1.6,0.7,1.6,1.6V16h-4.8v-0.8c0-0.4-0.4-0.8-0.8-0.8s-0.8,0.4-0.8,0.8V16H12 v-0.8c0-0.4-0.4-0.8-0.8-0.8s-0.8,0.4-0.8,0.8V16H5.6v-3.2C5.6,11.9,6.3,11.2,7.2,11.2z M21.6,17.6v0.8c0,0.4,0.4,0.8,0.8,0.8 s0.8-0.4,0.8-0.8v-0.8H28V24c0,0.9-0.7,1.6-1.6,1.6H7.2c-0.9,0-1.6-0.7-1.6-1.6v-6.4h4.8v0.8c0,0.4,0.4,0.8,0.8,0.8s0.8-0.4,0.8-0.8 v-0.8H21.6z"></path></svg>