<svg xmlns="http://www.w3.org/2000/svg" xmlns:xlink="http://www.w3.org/1999/xlink" id="Layer_1" x="0px" y="0px" viewBox="0 0 100 61" style="enable-background:new 0 0 100 61;" xml:space="preserve"><style type="text/css">	.st0{fill:#003E15;}	.st1{fill:#FFFFFF;}</style><g>	<rect x="20.4" y="-0.1" class="st0" width="79.6" height="61.1"></rect>	<rect x="0" y="-0.1" class="st1" width="20.9" height="61.2"></rect>	<path class="st1" d="M69.1,43.1c-9.1,0-16.4-7.4-16.4-16.5c0-5.2,2.4-9.9,6.2-12.9c-7,2.5-12,9.2-12,17c0,10,8,18.1,17.9,18.1  c7.5,0,13.9-4.6,16.6-11.2C78.4,40.9,74,43.1,69.1,43.1z"></path>	<polygon class="st1" points="78.8,25.6 74.5,24.6 72.3,28.6 71.8,24.1 67.5,23.1 71.6,21.4 71,16.9 74,20.3 78.1,18.4 75.8,22.3    "></polygon></g></svg>