<svg xmlns="http://www.w3.org/2000/svg" xmlns:xlink="http://www.w3.org/1999/xlink" id="Layer_1" x="0px" y="0px" viewBox="0 0 100 61" style="enable-background:new 0 0 100 61;" xml:space="preserve"><style type="text/css">	.st0{display:none;}	.st1{display:inline;fill:#003E15;}	.st2{display:inline;fill:#FFFFFF;}	.st3{clip-path:url(#SVGID_2_);fill:#FFFFFF;}	.st4{clip-path:url(#SVGID_2_);fill:#DC0032;}	.st5{clip-path:url(#SVGID_2_);fill:#0D1E7E;}</style><g class="st0">	<rect x="20.4" y="-0.1" class="st1" width="79.6" height="61.1"></rect>	<rect x="0" y="-0.1" class="st2" width="20.9" height="61.2"></rect>	<path class="st2" d="M69.1,43.1c-9.1,0-16.4-7.4-16.4-16.5c0-5.2,2.4-9.9,6.2-12.9c-7,2.5-12,9.2-12,17c0,10,8,18.1,17.9,18.1  c7.5,0,13.9-4.6,16.6-11.2C78.4,40.9,74,43.1,69.1,43.1z"></path>	<polygon class="st2" points="78.8,25.6 74.5,24.6 72.3,28.6 71.8,24.1 67.5,23.1 71.6,21.4 71,16.9 74,20.3 78.1,18.4 75.8,22.3    "></polygon></g><g id="UNITED_KINGDOM_2_">	<g>		<g>			<defs>				<rect id="SVGID_1_" y="0.2" width="100" height="60.5"></rect>			</defs>			<clipPath id="SVGID_2_">				<use xlink:href="#SVGID_1_" style="overflow:visible;"></use>			</clipPath>			<rect y="0.2" class="st3" width="100" height="60.5"></rect>			<polygon class="st4" points="67,22.1 100,2.9 100,0.2 97.7,0.2 60,22.1    "></polygon>			<polygon class="st4" points="65.4,40.1 100,60.2 100,56.2 72.3,40.1    "></polygon>			<polygon class="st4" points="0,4.9 29.6,22.1 36.5,22.1 0,0.8    "></polygon>			<polygon class="st4" points="34.9,40.1 0,60.4 0,60.8 6.3,60.8 41.9,40.1    "></polygon>			<polygon class="st5" points="93.2,0.2 58.1,0.2 58.1,20.6    "></polygon>			<polygon class="st5" points="42.7,0.2 7.8,0.2 42.7,20.6    "></polygon>			<polygon class="st5" points="100,22.1 100,8.2 76.2,22.1    "></polygon>			<polygon class="st5" points="100,53.8 100,40.1 76.2,40.1    "></polygon>			<polygon class="st5" points="9.8,60.8 42.7,60.8 42.7,41.6    "></polygon>			<polygon class="st5" points="58.1,60.8 91.1,60.8 58.1,41.6    "></polygon>			<polygon class="st5" points="0,40.1 0,54.4 24.6,40.1    "></polygon>			<polygon class="st5" points="0,22.1 24.6,22.1 0,7.7    "></polygon>			<polygon class="st4" points="45.8,0.2 45.8,25.7 0,25.7 0,36.5 45.8,36.5 45.8,60.8 55.1,60.8 55.1,36.5 100,36.5 100,25.7     55.1,25.7 55.1,0.2    "></polygon>		</g>	</g></g></svg>