<svg xmlns="http://www.w3.org/2000/svg" xmlns:xlink="http://www.w3.org/1999/xlink" id="Layer_1" x="0px" y="0px" viewBox="0 0 100 61" style="enable-background:new 0 0 100 61;" xml:space="preserve"><style type="text/css">	.st0{display:none;}	.st1{display:inline;fill:#003E15;}	.st2{display:inline;fill:#FFFFFF;}	.st3{display:inline;}	.st4{clip-path:url(#SVGID_2_);fill:#FFFFFF;}	.st5{clip-path:url(#SVGID_2_);fill:#DC0032;}	.st6{clip-path:url(#SVGID_2_);fill:#0D1E7E;}	.st7{fill:#DB2E2E;}	.st8{fill:#FFFFFF;}	.st9{fill:#2E4593;}</style><g class="st0">	<rect x="20.4" y="-0.1" class="st1" width="79.6" height="61.1"></rect>	<rect x="0" y="-0.1" class="st2" width="20.9" height="61.2"></rect>	<path class="st2" d="M69.1,43.1c-9.1,0-16.4-7.4-16.4-16.5c0-5.2,2.4-9.9,6.2-12.9c-7,2.5-12,9.2-12,17c0,10,8,18.1,17.9,18.1  c7.5,0,13.9-4.6,16.6-11.2C78.4,40.9,74,43.1,69.1,43.1z"></path>	<polygon class="st2" points="78.8,25.6 74.5,24.6 72.3,28.6 71.8,24.1 67.5,23.1 71.6,21.4 71,16.9 74,20.3 78.1,18.4 75.8,22.3    "></polygon></g><g id="UNITED_KINGDOM_2_" class="st0">	<g class="st3">		<g>			<defs>				<rect id="SVGID_1_" y="0.2" width="100" height="60.5"></rect>			</defs>			<clipPath id="SVGID_2_">				<use xlink:href="#SVGID_1_" style="overflow:visible;"></use>			</clipPath>			<rect y="0.2" class="st4" width="100" height="60.5"></rect>			<polygon class="st5" points="67,22.1 100,2.9 100,0.2 97.7,0.2 60,22.1    "></polygon>			<polygon class="st5" points="65.4,40.1 100,60.2 100,56.2 72.3,40.1    "></polygon>			<polygon class="st5" points="0,4.9 29.6,22.1 36.5,22.1 0,0.8    "></polygon>			<polygon class="st5" points="34.9,40.1 0,60.4 0,60.8 6.3,60.8 41.9,40.1    "></polygon>			<polygon class="st6" points="93.2,0.2 58.1,0.2 58.1,20.6    "></polygon>			<polygon class="st6" points="42.7,0.2 7.8,0.2 42.7,20.6    "></polygon>			<polygon class="st6" points="100,22.1 100,8.2 76.2,22.1    "></polygon>			<polygon class="st6" points="100,53.8 100,40.1 76.2,40.1    "></polygon>			<polygon class="st6" points="9.8,60.8 42.7,60.8 42.7,41.6    "></polygon>			<polygon class="st6" points="58.1,60.8 91.1,60.8 58.1,41.6    "></polygon>			<polygon class="st6" points="0,40.1 0,54.4 24.6,40.1    "></polygon>			<polygon class="st6" points="0,22.1 24.6,22.1 0,7.7    "></polygon>			<polygon class="st5" points="45.8,0.2 45.8,25.7 0,25.7 0,36.5 45.8,36.5 45.8,60.8 55.1,60.8 55.1,36.5 100,36.5 100,25.7     55.1,25.7 55.1,0.2    "></polygon>		</g>	</g></g><g>	<g>		<g>			<g>				<g>					<rect y="18.6" class="st7" width="100" height="4.8"></rect>				</g>				<g>					<rect y="9.1" class="st7" width="100" height="4.8"></rect>				</g>				<g>					<rect y="-0.4" class="st7" width="100" height="4.8"></rect>				</g>				<g>					<rect y="28.1" class="st7" width="100" height="4.8"></rect>				</g>				<g>					<rect y="37.6" class="st7" width="100" height="4.8"></rect>				</g>				<g>					<rect y="47.1" class="st7" width="100" height="4.8"></rect>				</g>				<g>					<rect y="56.6" class="st7" width="100" height="4.8"></rect>				</g>			</g>		</g>		<g>			<rect y="13.9" class="st8" width="100" height="4.8"></rect>		</g>		<g>			<rect y="4.4" class="st8" width="100" height="4.8"></rect>		</g>		<g>			<rect y="23.4" class="st8" width="100" height="4.8"></rect>		</g>		<g>			<rect y="32.9" class="st8" width="100" height="4.8"></rect>		</g>		<g>			<rect y="42.4" class="st8" width="100" height="4.8"></rect>		</g>		<g>			<rect y="51.9" class="st8" width="100" height="4.8"></rect>		</g>	</g>	<g>		<rect y="-0.3" class="st9" width="37.4" height="28.8"></rect>	</g>	<g>		<g>			<g>				<g>					<polygon class="st8" points="31.2,5.5 31.7,6.6 30.7,5.9 30.7,5.9 30.7,5.9 29.8,6.6 30.2,5.5 30.2,5.5 30.2,5.5 29.2,4.8       30.3,4.8 30.7,3.7 31,4.8 31,4.8 31,4.8 32.2,4.8 31.2,5.5 31.2,5.5      "></polygon>				</g>			</g>			<g>				<g>					<polygon class="st8" points="31.2,11.3 31.7,12.4 30.7,11.7 30.7,11.7 30.7,11.7 29.8,12.4 30.2,11.3 30.2,11.3 30.2,11.3       29.2,10.6 30.3,10.6 30.7,9.5 31,10.6 31,10.6 31,10.6 32.2,10.6 31.2,11.3 31.2,11.3      "></polygon>				</g>			</g>			<g>				<g>					<polygon class="st8" points="31.2,17.1 31.7,18.2 30.7,17.5 30.7,17.5 30.7,17.5 29.8,18.2 30.2,17.1 30.2,17.1 30.2,17.1       29.2,16.4 30.3,16.4 30.7,15.3 31,16.4 31,16.4 31,16.4 32.2,16.4 31.2,17.1 31.2,17.1      "></polygon>				</g>			</g>			<g>				<g>					<polygon class="st8" points="31.2,22.9 31.7,24 30.7,23.3 30.7,23.3 30.7,23.3 29.8,24 30.2,22.9 30.2,22.9 30.2,22.9       29.2,22.2 30.3,22.2 30.7,21.1 31,22.2 31,22.3 31,22.2 32.2,22.2 31.2,22.9 31.2,22.9      "></polygon>				</g>			</g>		</g>		<g>			<g>				<g>					<polygon class="st8" points="25.1,5.5 25.5,6.6 24.5,5.9 24.5,5.9 24.5,5.9 23.6,6.6 24,5.5 24,5.5 24,5.5 23,4.8 24.2,4.8       24.5,3.7 24.9,4.8 24.9,4.8 24.9,4.8 26,4.8 25.1,5.5 25.1,5.5      "></polygon>				</g>			</g>			<g>				<g>					<polygon class="st8" points="25.1,11.3 25.5,12.4 24.5,11.7 24.5,11.7 24.5,11.7 23.6,12.4 24,11.3 24,11.3 24,11.3 23,10.6       24.2,10.6 24.5,9.5 24.9,10.6 24.9,10.6 24.9,10.6 26,10.6 25.1,11.3 25.1,11.3      "></polygon>				</g>			</g>			<g>				<g>					<polygon class="st8" points="25.1,17.1 25.5,18.2 24.5,17.5 24.5,17.5 24.5,17.5 23.6,18.2 24,17.1 24,17.1 24,17.1 23,16.4       24.2,16.4 24.5,15.3 24.9,16.4 24.9,16.4 24.9,16.4 26,16.4 25.1,17.1 25.1,17.1      "></polygon>				</g>			</g>			<g>				<g>					<polygon class="st8" points="25.1,22.9 25.5,24 24.5,23.3 24.5,23.3 24.5,23.3 23.6,24 24,22.9 24,22.9 24,22.9 23,22.2       24.2,22.2 24.5,21.1 24.9,22.2 24.9,22.3 24.9,22.2 26,22.2 25.1,22.9 25.1,22.9      "></polygon>				</g>			</g>		</g>		<g>			<g>				<g>					<polygon class="st8" points="18.9,5.5 19.3,6.6 18.3,5.9 18.3,5.9 18.3,5.9 17.4,6.6 17.8,5.5 17.8,5.5 17.8,5.5 16.8,4.8       18,4.8 18.3,3.7 18.7,4.8 18.7,4.8 18.7,4.8 19.8,4.8 18.9,5.5 18.9,5.5      "></polygon>				</g>			</g>			<g>				<g>					<polygon class="st8" points="18.9,11.3 19.3,12.4 18.3,11.7 18.3,11.7 18.3,11.7 17.4,12.4 17.8,11.3 17.8,11.3 17.8,11.3       16.8,10.6 18,10.6 18.3,9.5 18.7,10.6 18.7,10.6 18.7,10.6 19.8,10.6 18.9,11.3 18.9,11.3      "></polygon>				</g>			</g>			<g>				<g>					<polygon class="st8" points="18.9,17.1 19.3,18.2 18.3,17.5 18.3,17.5 18.3,17.5 17.4,18.2 17.8,17.1 17.8,17.1 17.8,17.1       16.8,16.4 18,16.4 18.3,15.3 18.7,16.4 18.7,16.4 18.7,16.4 19.8,16.4 18.9,17.1 18.9,17.1      "></polygon>				</g>			</g>			<g>				<g>					<polygon class="st8" points="18.9,22.9 19.3,24 18.3,23.3 18.3,23.3 18.3,23.3 17.4,24 17.8,22.9 17.8,22.9 17.8,22.9       16.8,22.2 18,22.2 18.3,21.1 18.7,22.2 18.7,22.3 18.7,22.2 19.8,22.2 18.9,22.9 18.9,22.9      "></polygon>				</g>			</g>		</g>		<g>			<g>				<g>					<polygon class="st8" points="12.8,5.5 13.2,6.6 12.3,5.9 12.3,5.9 12.3,5.9 11.3,6.6 11.7,5.5 11.7,5.5 11.7,5.5 10.7,4.8       11.9,4.8 12.2,3.7 12.6,4.8 12.6,4.8 12.6,4.8 13.8,4.8 12.8,5.5 12.8,5.5      "></polygon>				</g>			</g>			<g>				<g>					<polygon class="st8" points="12.8,11.3 13.2,12.4 12.3,11.7 12.3,11.7 12.3,11.7 11.3,12.4 11.7,11.3 11.7,11.3 11.7,11.3       10.7,10.6 11.9,10.6 12.2,9.5 12.6,10.6 12.6,10.6 12.6,10.6 13.8,10.6 12.8,11.3 12.8,11.3      "></polygon>				</g>			</g>			<g>				<g>					<polygon class="st8" points="12.8,17.1 13.2,18.2 12.3,17.5 12.3,17.5 12.3,17.5 11.3,18.2 11.7,17.1 11.7,17.1 11.7,17.1       10.7,16.4 11.9,16.4 12.2,15.3 12.6,16.4 12.6,16.4 12.6,16.4 13.8,16.4 12.8,17.1 12.8,17.1      "></polygon>				</g>			</g>			<g>				<g>					<polygon class="st8" points="12.8,22.9 13.2,24 12.3,23.3 12.3,23.3 12.3,23.3 11.3,24 11.7,22.9 11.7,22.9 11.7,22.9       10.7,22.2 11.9,22.2 12.2,21.1 12.6,22.2 12.6,22.3 12.6,22.2 13.8,22.2 12.8,22.9 12.8,22.9      "></polygon>				</g>			</g>		</g>		<g>			<g>				<g>					<polygon class="st8" points="6.7,5.5 7.1,6.6 6.2,5.9 6.2,5.9 6.2,5.9 5.2,6.6 5.6,5.5 5.6,5.5 5.6,5.5 4.6,4.8 5.8,4.8       6.1,3.7 6.5,4.8 6.5,4.8 6.5,4.8 7.7,4.8 6.7,5.5 6.7,5.5      "></polygon>				</g>			</g>			<g>				<g>					<polygon class="st8" points="6.7,11.3 7.1,12.4 6.2,11.7 6.2,11.7 6.2,11.7 5.2,12.4 5.6,11.3 5.6,11.3 5.6,11.3 4.6,10.6       5.8,10.6 6.1,9.5 6.5,10.6 6.5,10.6 6.5,10.6 7.7,10.6 6.7,11.3 6.7,11.3      "></polygon>				</g>			</g>			<g>				<g>					<polygon class="st8" points="6.7,17.1 7.1,18.2 6.2,17.5 6.2,17.5 6.2,17.5 5.2,18.2 5.6,17.1 5.6,17.1 5.6,17.1 4.6,16.4       5.8,16.4 6.1,15.3 6.5,16.4 6.5,16.4 6.5,16.4 7.7,16.4 6.7,17.1 6.7,17.1      "></polygon>				</g>			</g>			<g>				<g>					<polygon class="st8" points="6.7,22.9 7.1,24 6.2,23.3 6.2,23.3 6.2,23.3 5.2,24 5.6,22.9 5.6,22.9 5.6,22.9 4.6,22.2       5.8,22.2 6.1,21.1 6.5,22.2 6.5,22.3 6.5,22.2 7.7,22.2 6.7,22.9 6.7,22.9      "></polygon>				</g>			</g>		</g>		<g>			<g>				<g>					<polygon class="st8" points="34.3,8.4 34.6,9.5 33.7,8.8 33.7,8.8 33.7,8.8 32.8,9.5 33.2,8.4 33.2,8.4 33.2,8.4 32.2,7.7       33.4,7.7 33.7,6.6 34,7.7 34,7.7 34,7.7 35.2,7.7 34.2,8.4 34.2,8.4      "></polygon>				</g>			</g>			<g>				<g>					<polygon class="st8" points="34.3,14.2 34.6,15.3 33.7,14.6 33.7,14.6 33.7,14.6 32.8,15.3 33.2,14.2 33.2,14.2 33.2,14.2       32.2,13.5 33.4,13.5 33.7,12.4 34,13.5 34,13.5 34,13.5 35.2,13.5 34.2,14.2 34.2,14.2      "></polygon>				</g>			</g>			<g>				<g>					<polygon class="st8" points="34.3,20 34.6,21.1 33.7,20.4 33.7,20.4 33.7,20.4 32.8,21.1 33.2,20 33.2,20 33.2,20 32.2,19.3       33.4,19.3 33.7,18.2 34,19.3 34,19.3 34,19.3 35.2,19.3 34.2,20 34.2,20      "></polygon>				</g>			</g>			<g>				<g>					<polygon class="st8" points="34.3,25.8 34.6,26.9 33.7,26.3 33.7,26.2 33.7,26.3 32.8,26.9 33.2,25.8 33.2,25.8 33.2,25.8       32.2,25.2 33.4,25.2 33.7,24 34,25.2 34,25.2 34,25.2 35.2,25.2 34.2,25.8 34.2,25.8      "></polygon>				</g>			</g>			<g>				<g>					<polygon class="st8" points="34.3,2.6 34.6,3.7 33.7,3 33.7,3 33.7,3 32.8,3.7 33.2,2.6 33.2,2.6 33.2,2.6 32.2,1.9 33.4,1.9       33.7,0.8 34,1.9 34,1.9 34,1.9 35.2,1.9 34.2,2.6 34.2,2.6      "></polygon>				</g>			</g>		</g>		<g>			<g>				<g>					<polygon class="st8" points="28.2,8.4 28.6,9.5 27.7,8.8 27.7,8.8 27.7,8.8 26.7,9.5 27.1,8.4 27.1,8.4 27.1,8.4 26.1,7.7       27.3,7.7 27.6,6.6 28,7.7 28,7.7 28,7.7 29.2,7.7 28.2,8.4 28.2,8.4      "></polygon>				</g>			</g>			<g>				<g>					<polygon class="st8" points="28.2,14.2 28.6,15.3 27.7,14.6 27.7,14.6 27.7,14.6 26.7,15.3 27.1,14.2 27.1,14.2 27.1,14.2       26.1,13.5 27.3,13.5 27.6,12.4 28,13.5 28,13.5 28,13.5 29.2,13.5 28.2,14.2 28.2,14.2      "></polygon>				</g>			</g>			<g>				<g>					<polygon class="st8" points="28.2,20 28.6,21.1 27.7,20.4 27.7,20.4 27.7,20.4 26.7,21.1 27.1,20 27.1,20 27.1,20 26.1,19.3       27.3,19.3 27.6,18.2 28,19.3 28,19.3 28,19.3 29.2,19.3 28.2,20 28.2,20      "></polygon>				</g>			</g>			<g>				<g>					<polygon class="st8" points="28.2,25.8 28.6,26.9 27.7,26.3 27.7,26.2 27.7,26.3 26.7,26.9 27.1,25.8 27.1,25.8 27.1,25.8       26.1,25.2 27.3,25.2 27.6,24 28,25.2 28,25.2 28,25.2 29.2,25.2 28.2,25.8 28.2,25.8      "></polygon>				</g>			</g>			<g>				<g>					<polygon class="st8" points="28.2,2.6 28.6,3.7 27.7,3 27.7,3 27.7,3 26.7,3.7 27.1,2.6 27.1,2.6 27.1,2.6 26.1,1.9 27.3,1.9       27.6,0.8 28,1.9 28,1.9 28,1.9 29.2,1.9 28.2,2.6 28.2,2.6      "></polygon>				</g>			</g>		</g>		<g>			<g>				<g>					<polygon class="st8" points="21.9,8.4 22.3,9.5 21.4,8.8 21.4,8.8 21.4,8.8 20.4,9.5 20.8,8.4 20.8,8.4 20.8,8.4 19.8,7.7       21,7.7 21.3,6.6 21.7,7.7 21.7,7.7 21.7,7.7 22.9,7.7 21.9,8.4 21.9,8.4      "></polygon>				</g>			</g>			<g>				<g>					<polygon class="st8" points="21.9,14.2 22.3,15.3 21.4,14.6 21.4,14.6 21.4,14.6 20.4,15.3 20.8,14.2 20.8,14.2 20.8,14.2       19.8,13.5 21,13.5 21.3,12.4 21.7,13.5 21.7,13.5 21.7,13.5 22.9,13.5 21.9,14.2 21.9,14.2      "></polygon>				</g>			</g>			<g>				<g>					<polygon class="st8" points="21.9,20 22.3,21.1 21.4,20.4 21.4,20.4 21.4,20.4 20.4,21.1 20.8,20 20.8,20 20.8,20 19.8,19.3       21,19.3 21.3,18.2 21.7,19.3 21.7,19.3 21.7,19.3 22.9,19.3 21.9,20 21.9,20      "></polygon>				</g>			</g>			<g>				<g>					<polygon class="st8" points="21.9,25.8 22.3,26.9 21.4,26.3 21.4,26.2 21.4,26.3 20.4,26.9 20.8,25.8 20.8,25.8 20.8,25.8       19.8,25.2 21,25.2 21.3,24 21.7,25.2 21.7,25.2 21.7,25.2 22.9,25.2 21.9,25.8 21.9,25.8      "></polygon>				</g>			</g>			<g>				<g>					<polygon class="st8" points="21.9,2.6 22.3,3.7 21.4,3 21.4,3 21.4,3 20.4,3.7 20.8,2.6 20.8,2.6 20.8,2.6 19.8,1.9 21,1.9       21.3,0.8 21.7,1.9 21.7,1.9 21.7,1.9 22.9,1.9 21.9,2.6 21.9,2.6      "></polygon>				</g>			</g>		</g>		<g>			<g>				<g>					<polygon class="st8" points="15.8,8.4 16.2,9.5 15.2,8.8 15.2,8.8 15.2,8.8 14.3,9.5 14.7,8.4 14.7,8.4 14.7,8.4 13.7,7.7       14.9,7.7 15.2,6.6 15.5,7.7 15.5,7.7 15.5,7.7 16.7,7.7 15.8,8.4 15.8,8.4      "></polygon>				</g>			</g>			<g>				<g>					<polygon class="st8" points="15.8,14.2 16.2,15.3 15.2,14.6 15.2,14.6 15.2,14.6 14.3,15.3 14.7,14.2 14.7,14.2 14.7,14.2       13.7,13.5 14.9,13.5 15.2,12.4 15.5,13.5 15.5,13.5 15.5,13.5 16.7,13.5 15.8,14.2 15.8,14.2      "></polygon>				</g>			</g>			<g>				<g>					<polygon class="st8" points="15.8,20 16.2,21.1 15.2,20.4 15.2,20.4 15.2,20.4 14.3,21.1 14.7,20 14.7,20 14.7,20 13.7,19.3       14.9,19.3 15.2,18.2 15.5,19.3 15.5,19.3 15.5,19.3 16.7,19.3 15.8,20 15.8,20      "></polygon>				</g>			</g>			<g>				<g>					<polygon class="st8" points="15.8,25.8 16.2,26.9 15.2,26.3 15.2,26.2 15.2,26.3 14.3,26.9 14.7,25.8 14.7,25.8 14.7,25.8       13.7,25.2 14.9,25.2 15.2,24 15.5,25.2 15.5,25.2 15.5,25.2 16.7,25.2 15.8,25.8 15.8,25.8      "></polygon>				</g>			</g>			<g>				<g>					<polygon class="st8" points="15.8,2.6 16.2,3.7 15.2,3 15.2,3 15.2,3 14.3,3.7 14.7,2.6 14.7,2.6 14.7,2.6 13.7,1.9 14.9,1.9       15.2,0.8 15.5,1.9 15.5,1.9 15.5,1.9 16.7,1.9 15.8,2.6 15.8,2.6      "></polygon>				</g>			</g>		</g>		<g>			<g>				<g>					<polygon class="st8" points="9.7,8.4 10.1,9.5 9.2,8.8 9.2,8.8 9.2,8.8 8.2,9.5 8.6,8.4 8.6,8.4 8.6,8.4 7.7,7.7 8.8,7.7       9.2,6.6 9.5,7.7 9.5,7.7 9.5,7.7 10.7,7.7 9.7,8.4 9.7,8.4      "></polygon>				</g>			</g>			<g>				<g>					<polygon class="st8" points="9.7,14.2 10.1,15.3 9.2,14.6 9.2,14.6 9.2,14.6 8.2,15.3 8.6,14.2 8.6,14.2 8.6,14.2 7.7,13.5       8.8,13.5 9.2,12.4 9.5,13.5 9.5,13.5 9.5,13.5 10.7,13.5 9.7,14.2 9.7,14.2      "></polygon>				</g>			</g>			<g>				<g>					<polygon class="st8" points="9.7,20 10.1,21.1 9.2,20.4 9.2,20.4 9.2,20.4 8.2,21.1 8.6,20 8.6,20 8.6,20 7.7,19.3 8.8,19.3       9.2,18.2 9.5,19.3 9.5,19.3 9.5,19.3 10.7,19.3 9.7,20 9.7,20      "></polygon>				</g>			</g>			<g>				<g>					<polygon class="st8" points="9.7,25.8 10.1,26.9 9.2,26.3 9.2,26.2 9.2,26.3 8.2,26.9 8.6,25.8 8.6,25.8 8.6,25.8 7.7,25.2       8.8,25.2 9.2,24 9.5,25.2 9.5,25.2 9.5,25.2 10.7,25.2 9.7,25.8 9.7,25.8      "></polygon>				</g>			</g>			<g>				<g>					<polygon class="st8" points="9.7,2.6 10.1,3.7 9.2,3 9.2,3 9.2,3 8.2,3.7 8.6,2.6 8.6,2.6 8.6,2.6 7.7,1.9 8.8,1.9 9.2,0.8       9.5,1.9 9.5,1.9 9.5,1.9 10.7,1.9 9.7,2.6 9.7,2.6      "></polygon>				</g>			</g>		</g>		<g>			<g>				<g>					<polygon class="st8" points="3.6,8.4 4,9.5 3.1,8.8 3.1,8.8 3.1,8.8 2.1,9.5 2.5,8.4 2.5,8.4 2.5,8.4 1.5,7.7 2.7,7.7 3,6.6       3.4,7.7 3.4,7.7 3.4,7.7 4.6,7.7 3.6,8.4 3.6,8.4      "></polygon>				</g>			</g>			<g>				<g>					<polygon class="st8" points="3.6,14.2 4,15.3 3.1,14.6 3.1,14.6 3.1,14.6 2.1,15.3 2.5,14.2 2.5,14.2 2.5,14.2 1.5,13.5       2.7,13.5 3,12.4 3.4,13.5 3.4,13.5 3.4,13.5 4.6,13.5 3.6,14.2 3.6,14.2      "></polygon>				</g>			</g>			<g>				<g>					<polygon class="st8" points="3.6,20 4,21.1 3.1,20.4 3.1,20.4 3.1,20.4 2.1,21.1 2.5,20 2.5,20 2.5,20 1.5,19.3 2.7,19.3       3,18.2 3.4,19.3 3.4,19.3 3.4,19.3 4.6,19.3 3.6,20 3.6,20      "></polygon>				</g>			</g>			<g>				<g>					<polygon class="st8" points="3.6,25.8 4,26.9 3.1,26.3 3.1,26.2 3.1,26.3 2.1,26.9 2.5,25.8 2.5,25.8 2.5,25.8 1.5,25.2       2.7,25.2 3,24 3.4,25.2 3.4,25.2 3.4,25.2 4.6,25.2 3.6,25.8 3.6,25.8      "></polygon>				</g>			</g>			<g>				<g>					<polygon class="st8" points="3.6,2.6 4,3.7 3.1,3 3.1,3 3.1,3 2.1,3.7 2.5,2.6 2.5,2.6 2.5,2.6 1.5,1.9 2.7,1.9 3,0.8 3.4,1.9       3.4,1.9 3.4,1.9 4.6,1.9 3.6,2.6 3.6,2.6      "></polygon>				</g>			</g>		</g>	</g></g></svg>